<svg id="Layer_1" data-name="Layer 1" xmlns="http://www.w3.org/2000/svg" viewBox="0 0 200 200"><defs><style>.cls-1{fill:none;stroke:#42a5f5;stroke-linecap:round;stroke-linejoin:round;stroke-width:5px;}.cls-1,.cls-2{opacity:0.3;}.cls-2{fill:#42a5f5;}</style></defs><title>Artboard 1</title><rect class="cls-1" x="132" y="48" width="36" height="22" rx="4"/><path class="cls-1" d="M140,48V40a10,10,0,0,1,20,0v8"/><rect class="cls-1" x="32" y="148" width="36" height="22" rx="4"/><path class="cls-1" d="M40,148v-8a10,10,0,0,1,20,0v8"/><path class="cls-2" d="M49.69865,61.12a3,3,0,0,1-2.12.88h-1.58v1a2.996,2.996,0,0,1-3,3h-1v1a2.996,2.996,0,0,1-3,3h-5a4,4,0,0,1-4-4V60.82a4,4,0,0,1,1.18-2.82l11.12-11.12a14.003,14.003,0,1,1,10.82,10.82l-3.4,3.42Zm2.24-7.9,1.16.36a10,10,0,1,0-6.68-6.68l.36,1.16-12.78,12.74V66h4V65a2.996,2.996,0,0,1,3-3h1V61a2.996,2.996,0,0,1,3-3h2.18Zm10.06-9.22a2,2,0,0,1-4,0,2,2,0,0,0-2-2,2,2,0,0,1,0-4A6,6,0,0,1,61.99865,44Z"/><path class="cls-2" d="M149.69865,161.12a3,3,0,0,1-2.12.88h-1.58v1a2.996,2.996,0,0,1-3,3h-1v1a2.996,2.996,0,0,1-3,3h-5a4,4,0,0,1-4-4v-5.18a4,4,0,0,1,1.18-2.82l11.12-11.12a14.003,14.003,0,1,1,10.82,10.82l-3.4,3.42Zm2.24-7.9,1.16.36a10,10,0,1,0-6.68-6.68l.36,1.16-12.78,12.74V166h4v-1a2.996,2.996,0,0,1,3-3h1v-1a2.996,2.996,0,0,1,3-3h2.18Zm10.06-9.22a2,2,0,0,1-4,0,2,2,0,0,0-2-2,2,2,0,0,1,0-4A6,6,0,0,1,161.99865,144Z"/></svg>